<?xml version="1.0" encoding="UTF-8"?><svg id="Capa_1" xmlns="http://www.w3.org/2000/svg" viewBox="0 0 96.5 70.8"><path d="M84.1,53.5c-.3,2.2-1.6,6-5.2,9.6-1.3,1.3-2.8,2.4-4.3,3.3-4.1,2.3-8.7,2.9-13.2,1.8-1.1-.3-2.2-.6-3.3-1.1-.1,0-.2-.1-.3-.2t0,0h0c-1-.5-2-1-2.9-1.6-.4-.2-.7-.5-1.1-.8-.9-.6-1.7-1.4-2.5-2.2-.6-.6-1.2-1.3-1.8-2-.3-.3-.5-.7-.8-1-.2,.3-.5,.7-.8,1-.5,.7-1.1,1.3-1.8,2-.8,.8-1.6,1.5-2.5,2.2-.3,.2-.6,.4-.8,.6-1.1,.8-2.3,1.4-3.5,1.9,0,0,0,0,0,0-.4,.2-.7,.3-1.1,.4h0c-.5,.2-1.1,.4-1.6,.5,0,0-.1,0-.2,0,0,0-.2,0-.3,0-.1,0-.3,0-.4,0-.3,0-.6,.1-.8,.2-2.8,.5-5.7,.3-8.4-.5-2.9-.9-5.6-2.5-7.9-4.8-3.6-3.6-4.9-7.5-5.2-9.6,1.3-1.2,4.3-3.3,7.1-4.5-.6,2.1-.7,6.2,2.8,9.6,1,1,2.1,1.8,3.3,2.3,2.6,1.2,5.6,1.4,8.4,.4,2-.7,3.9-1.9,5.6-3.6,1.6-1.6,3.6-3.3,5-5.1,.4-.5,.8-1.1,1.1-1.6,.5-.9,.8-1.8,.8-2.7h2.6c0,.9,.3,1.8,.8,2.7,.3,.5,.7,1.1,1.1,1.6,1.4,1.8,3.4,3.5,5,5.1,1.4,1.4,2.9,2.4,4.4,3.1,4.4,2,9.3,1.3,12.9-2.2,.1-.1,.2-.2,.3-.4,3.1-3.4,3.1-7.2,2.4-9.3,2.9,1.2,5.8,3.3,7.1,4.5Z" fill="#1d1d1b"/><path d="M85.4,12.1c2.7-.5,5-1.3,6.6-2.3-.2-2.7-.7-5-1.7-7-2.6,1-6.9,1.5-11.4,1.5h-7.5c-4.3,0-7.4,1.1-9.5,3-.7,.6-1.2,1.4-1.7,2.2-.8,1.5-1.3,3.2-1.5,5.2,0,.6,0,1.2,0,1.8,0,2.1,.3,4.1,.7,5.8,0,.2,0,.3,.1,.5,0,.3,.2,.6,.3,.8,.2,.5,.3,.9,.5,1.4,.3,.6,.5,1.2,.8,1.8,0,0,0,0,0,0,.6,1.3,1.3,2.6,1.9,4,2.3,.1,4.6,.3,6.9,.4,.2,0,.3,0,.5,0-1.4-2.8-2.9-5.2-3.6-6.9,0,0,0-.1,0-.2-.5-1.7-.9-3.5-.9-5.3s0-.3,0-.5c0-1.7,.5-3.1,1.2-4,1.1-1.4,2.8-2,5-2h.9c0,.9-.2,2-.2,3.3,0,2.1,.2,4,.5,5.7,1.1,5.5,3.9,8.9,7.8,9.9,.8,.2,1.7,.3,2.6,.3,5.3,0,8.4-3.7,8.4-8.8s-2.3-8.6-6.7-10.9Zm-3.3,11.9c-2.8,0-4.8-2.8-4.8-8.7s0-1.9,.1-2.6c5.5,1,8,4.4,8,7.5s-1.2,3.8-3.3,3.8Z" fill="#1d1d1b"/><path d="M38.7,14.5c-.1-2-.6-3.8-1.3-5.3-.6-1.1-1.3-2.1-2.2-2.8-2.1-1.8-5.1-2.7-9.2-2.7h-7.5c-4.5,0-8.8-.5-11.4-1.5-1,2-1.6,4.3-1.7,7,1.6,1,3.9,1.8,6.6,2.3-4.5,2.3-6.7,6.6-6.7,10.9s3.1,8.8,8.4,8.8,2.3-.2,3.3-.5c4-1.4,6.7-5.5,7.4-11.9,.1-1.1,.2-2.3,.2-3.6s0-2.5-.2-3.3h.9c1.9,0,3.4,.4,4.4,1.3,1.2,1.1,1.9,2.7,1.9,5.2s0,.3,0,.4c0,1.7-.4,3.3-.9,4.9,0,0,0,.1,0,.2-.8,2.1-2.9,5.1-4.3,8.7,.2,0,.4,0,.6,0,2.3,0,4.5,0,6.7,0,.7-2.2,1.8-4.3,2.7-6.3,0,0,0,0,0,0,.3-.6,.5-1.2,.8-1.8,.2-.4,.3-.9,.5-1.4,0-.3,.2-.6,.3-.9,0-.1,0-.3,.1-.5,.4-1.7,.7-3.7,.7-5.8s0-.9,0-1.4ZM15.3,23.3c-2.2,0-3.3-1.7-3.3-3.8,0-3,2.5-6.4,8-7.4,0,.7,.1,1.5,.1,2.5,0,5.9-2,8.7-4.8,8.7Z" fill="#1d1d1b"/><path d="M58.6,38.1c-2.2,.9-8.4,3.6-8.6,6.8,0,.2,0,.4,0,.6h-2.7c0-.2,0-.3,0-.5-.2-3.3-6.4-6.1-8.6-6.9,3.3-1,7.4-1.6,9.7-1.7,0,0,.2,0,.2,0s.2,0,.2,0c2.3,.1,6.4,.7,9.7,1.7Z" fill="#1d1d1b"/></svg>