<?xml version="1.0" encoding="UTF-8"?><svg id="Baner_Linkedin" xmlns="http://www.w3.org/2000/svg" viewBox="0 0 214.2 214.2"><path d="M132.7,201.4c-17.4,0-29.1-11.3-29.1-28.2s19-35.2,49.5-35.2,3.3,0,4.8,.1c-.6-7.7-4.8-10.9-13.7-10.9s-8.9,.8-13.5,2.3h-.3c-2.5,1.1-5.6,2.8-9.1,4.7-9.7,5.3-23,12.6-38.1,12.6-37.9,0-64.3-27.6-64.3-67.1s7.3-40.2,20.5-53.9c13.1-13.6,31.1-21.1,50.8-21.1s35.8,9,39.4,11.8l1.9,1.4v2.4c-.5,7.6-2.8,20.2-7,30.1l-3.7,8.7-4.4-8.4c-.8-1.5-8.2-14.5-26.7-14.5s-36.2,17-36.2,40.4,15.1,38.1,37.5,38.1,17.5-4.1,25.8-8.1c1.1-.5,2.2-1.1,3.3-1.6,.2,0,.4-.2,.5-.2,1.6-.7,3.3-1.5,4.9-2.2,1.5-.6,2.9-1.1,4.3-1.5,.5-.2,1-.3,1.4-.4,.3,0,.6-.2,1-.3h.3c.1-.1,.3-.1,.4-.2,.3,0,.7-.2,1-.3,5.7-1.4,11.6-2.2,17.4-2.2,25.6,0,39.1,13.9,39.1,40.3v21c0,13.2,1.4,24.3,3.9,30.4l1.5,3.9-3.7,1.9c-6.1,3.1-13.4,4.9-21.5,5.4l-2.7,.2-1.4-2.3c-1.7-2.8-3.2-6.3-4.5-10.1-7.3,8-17.6,12.8-28.8,12.8Zm21.7-41.7c-12.3,0-20,3.4-20,8.9s3.9,4.9,6.2,4.9c5.2,0,11.9-3.7,15.3-13.7-.5,0-1,0-1.5,0Z" fill="#fa6d48"/><path d="M185.5,159.4v-21c0-25.1-12.8-35.8-34.5-35.8s-11.5,.8-16.4,2c-.5,.1-.9,.3-1.3,.4-.8,.3-1.6,.5-2.4,.7-1.4,.4-2.6,.9-3.9,1.4-1.6,.7-3.4,1.5-5,2.2,0,0,0,0-.1,0-9.7,4.5-19.9,10.2-31.2,10.2-23.3,0-42-15.6-42-42.6s17.1-44.9,40.8-44.9,27.1,10.1,30.7,16.9c4.2-9.9,6.3-22.3,6.6-28.6-6.1-4.6-18.8-10.9-36.7-10.9-37.8,0-66.8,29-66.8,70.4s25.1,62.5,59.8,62.5,35.9-13.2,45.7-17c.2,0,.3-.1,.5-.2,4.7-1.5,9.9-2.5,14.9-2.5,12.8,0,18.3,6.4,18.3,17.7v2.5c-2.4-.2-5.6-.5-9.4-.5-28.6,0-45,12.1-45,30.7s10.3,23.7,24.6,23.7,24.3-6.4,30.7-19c1.4,7.5,3.7,14.1,6.4,18.5,7.6-.5,14.2-2.1,19.8-4.9-2.9-7.3-4.2-19.5-4.2-32.1Zm-44.8,18.6c-6,0-10.7-3.3-10.7-9.4s7.8-13.4,24.5-13.4,5.2,.2,7.2,.4c-2.8,15.5-12.4,22.4-21,22.4Z" fill="#ffe07a"/></svg>